<svg width="24" height="24" xmlns="http://www.w3.org/2000/svg" fill-rule="evenodd" clip-rule="evenodd"><path d="M11.954 11c3.33 0 7.057 6.123 7.632 8.716.575 2.594-.996 4.729-3.484 4.112-1.092-.271-3.252-1.307-4.102-1.291-.925.016-2.379.836-3.587 1.252-2.657.916-4.717-1.283-4.01-4.073C5.177 16.665 8.883 11 11.954 11zm10.793-4.39c1.188.539 1.629 2.82.894 5.27-.704 2.341-2.33 3.806-4.556 2.796-1.931-.877-2.158-3.178-.894-5.27 1.274-2.107 3.367-3.336 4.556-2.796zM.779 7.316c-1.044.729-1.06 2.996.082 5.215 1.092 2.12 2.913 3.236 4.868 1.87 1.696-1.185 1.504-3.433-.082-5.215C4.051 7.393 1.823 6.587.779 7.316zM16.422.024c1.323.251 2.321 2.428 2.182 5.062-.134 2.517-1.405 4.382-3.882 3.912-2.149-.407-2.938-2.657-2.181-5.061.761-2.421 2.559-4.164 3.881-3.913zM6.127.082C4.859.533 4.207 2.838 4.75 5.419c.519 2.467 2.062 4.114 4.437 3.269 2.06-.732 2.494-3.077 1.377-5.336C9.439 1.076 7.395-.369 6.127.082z"/></svg>