<svg xmlns="http://www.w3.org/2000/svg" viewBox="0 0 425.2 49.96"><g data-name="Слой 2"><g data-name="Слой 1"><path d="M155.44 7.79h-40.89v9.73h21.39l-22.47 28.84a1.37 1.37 0 001.08 2.21h41.9v-9.73h-22.4L156.52 10a1.37 1.37 0 00-1.08-2.21M86.62 6.42c-13.87 0-25.11 9.75-25.11 21.77S72.75 50 86.62 50s25.12-9.75 25.12-21.77S100.5 6.42 86.62 6.42m0 33.08a11.53 11.53 0 01-11.74-11.31 11.75 11.75 0 0123.49 0A11.53 11.53 0 0186.62 39.5M253.79 27a10.73 10.73 0 003.13-7.48c0-6.46-6-11.69-13.49-11.69H215.7v40.74h31.23c7.32-.13 13.21-5.31 13.21-11.69a11.44 11.44 0 00-6.35-9.88m-25.6-10h11.13a4 4 0 014.23 3.66 4 4 0 01-4.23 3.66h-11.13zm14.52 22.41h-14.52v-7.33h14.52a4 4 0 014.22 3.65 4 4 0 01-4.22 3.66m73.1-31.59h12.48v40.78h-12.48zm-6.74 14.54c0-8-7.51-14.55-16.77-14.55h-26.15v40.78h12.49V36.88h7.61l9.36 11.69h13.83l-10.36-12.93c5.89-2.26 10-7.36 10-13.3m-20 6.09h-10.44V17h10.46c3.64 0 6.6 2.56 6.6 5.72s-3 5.73-6.6 5.73m45.38-.26c0 11.7 11.88 21.18 26.53 21.18a32.05 32.05 0 0012-2.28V33.44c-2.31 3.23-6.68 5.4-11.69 5.4-7.42 0-13.44-4.77-13.44-10.65s6-10.65 13.44-10.65c5 0 9.53 2.22 11.69 5V9.29A32.05 32.05 0 00361 7c-14.65 0-26.53 9.48-26.53 21.17M184.41 8.23l-25.87 40.34h13.32l2.24-3.63h22.17l2.24 3.63h13.32L186 8.23a1 1 0 00-.78-.43.93.93 0 00-.78.43m-5.65 29.14l6.43-10.44 6.43 10.44zM408.2 26.76L422.97 7.8h-12.49l-18.11 23.25V7.79h-12.48v40.79h11.31l9.86-12.66 9.87 12.66h14.27l-17-21.82zM28.24 14c5.59 0 10.12-3.14 10.12-7s-4.53-7-10.12-7-10.13 3.14-10.13 7 4.53 7 10.13 7"/><path d="M54.55 8.72L28.24 32.11 1.92 8.72a1.13 1.13 0 00-1.23-.19A1.13 1.13 0 000 9.58v39h12.49V34L26.7 47.16a2.32 2.32 0 001.54.59 2.3 2.3 0 001.53-.59L44 34v14.57h12.47v-39a1.15 1.15 0 00-1.92-.86"/></g></g></svg>