<svg xmlns="http://www.w3.org/2000/svg" viewBox="0 0 27.24 16.54"><defs><style>.cls-2{fill:#9e9e9e}</style></defs><g id="Слой_2" data-name="Слой 2"><g id="content"><path fill="#7f7f7f" d="M13.62 13.32L0 6.66 13.62 0l13.62 6.66-13.62 6.66z"/><path class="cls-2" d="M13.62 13.32L0 6.66v3.22l13.62 6.66v-3.22z"/><path d="M27.24 9.88l-13.62 6.66v-3.22l13.62-6.66v3.22zM15.56 4.73a8.66 8.66 0 00-3.88 0H9.22v1.93c0 1.19 2 2.15 4.4 2.15s4.4-1 4.4-2.15V4.73z" fill="#404040"/><path class="cls-2" d="M13.62 2.58c-2.43 0-4.4 1-4.4 2.15s2 2.15 4.4 2.15 4.4-1 4.4-2.15-1.97-2.15-4.4-2.15z"/></g></g></svg>